<svg width="16" height="22" viewBox="0 0 16 22" fill="none" xmlns="http://www.w3.org/2000/svg">
    <path d="M7.67212 10.135C5.51918 10.135 3.75772 8.37358 3.75772 6.22064V4.81683C3.75772 2.66389 5.51918 0.902435 7.67212 0.902435C9.82506 0.902435 11.5865 2.66389 11.5865 4.81683V6.22064C11.5865 8.37358 9.82506 10.135 7.67212 10.135Z" fill="white"/>
    <path d="M9.87627 10.6729C9.21404 11.0157 8.4656 11.2132 7.67211 11.2132C6.87862 11.2132 6.13018 11.0159 5.46795 10.6729C2.50848 11.1144 0.219482 13.6827 0.219482 16.7599V20.809C0.219482 21.1796 0.5227 21.4826 0.893148 21.4826H14.4511C14.8217 21.4826 15.1247 21.1794 15.1247 20.809V16.7601C15.1247 13.6827 12.8357 11.1147 9.87627 10.6729Z" fill="white"/>
</svg>